#define cursor_width 32
#define cursor_height 32
static unsigned char cursor_bits[] = {
   0x00, 0x00, 0x00, 0x00, 0x00, 0x00, 0x00, 0x00, 0x00, 0x30, 0x0c, 0x00,
   0x00, 0x3e, 0x7c, 0x00, 0x00, 0x3f, 0xfc, 0x00, 0xc0, 0x1f, 0xf8, 0x03,
   0xe0, 0x07, 0xe0, 0x07, 0xe0, 0x01, 0x80, 0x07, 0xf0, 0x00, 0x00, 0x0f,
   0x78, 0x00, 0x00, 0x1e, 0x78, 0x00, 0x00, 0x1e, 0x38, 0x00, 0x00, 0x1c,
   0x3c, 0x00, 0x00, 0x3c, 0x1c, 0x00, 0x00, 0x38, 0x00, 0x00, 0x00, 0x00,
   0x00, 0x00, 0x00, 0x00, 0x00, 0x00, 0x00, 0x00, 0x00, 0x00, 0x00, 0x00,
   0x18, 0x00, 0x00, 0x38, 0x3c, 0x00, 0x00, 0x3c, 0x38, 0x00, 0x00, 0x1c,
   0x78, 0x00, 0x00, 0x1e, 0x78, 0x00, 0x00, 0x1e, 0xf0, 0x00, 0x00, 0x0f,
   0xe0, 0x01, 0x80, 0x07, 0xe0, 0x07, 0xe0, 0x07, 0xc0, 0x1f, 0xf8, 0x03,
   0x00, 0x3f, 0xfc, 0x00, 0x00, 0x3e, 0x7c, 0x00, 0x00, 0x30, 0x0c, 0x00,
   0x00, 0x00, 0x00, 0x00, 0x00, 0x00, 0x00, 0x00 };
